HIERARCHY
ROOT root
{
	OFFSET 0.00 0.00 0.00
	CHANNELS 6 Xposition Yposition Zposition Zrotation Xrotation Yrotation
	JOINT lowerback
	{
		OFFSET 0 0 0
		CHANNELS 6 Xposition Yposition Zposition Zrotation Xrotation Yrotation
		JOINT upperback
		{
			OFFSET -0.214371 12.3768 -1.12219
			CHANNELS 6 Xposition Yposition Zposition Zrotation Xrotation Yrotation
			JOINT thorax
			{
				OFFSET -0.00137213 12.3873 0.296195
				CHANNELS 6 Xposition Yposition Zposition Zrotation Xrotation Yrotation
				JOINT lowerneck
				{
					OFFSET 0.0883157 12.5016 0.82912
					CHANNELS 6 Xposition Yposition Zposition Zrotation Xrotation Yrotation
					JOINT upperneck
					{
						OFFSET -1 10.1794 0.943522
						CHANNELS 6 Xposition Yposition Zposition Zrotation Xrotation Yrotation
						JOINT head
						{
							OFFSET 0.667525 10.2797 -1.57149
							CHANNELS 6 Xposition Yposition Zposition Zrotation Xrotation Yrotation
							End Site
							{
								OFFSET 0 0 0
							}
						}
					}
				}
				JOINT lclavicle
				{
					OFFSET 0.0883157 12.5016 0.82912
					CHANNELS 6 Xposition Yposition Zposition Zrotation Xrotation Yrotation
					JOINT lhumerus
					{
						OFFSET 20.61 4.45006 1.43784
						CHANNELS 6 Xposition Yposition Zposition Zrotation Xrotation Yrotation
						JOINT lradius
						{
							OFFSET 0 -30.3438 0
							CHANNELS 6 Xposition Yposition Zposition Zrotation Xrotation Yrotation
							JOINT lwrist
							{
								OFFSET 0 -18.964 0
								CHANNELS 6 Xposition Yposition Zposition Zrotation Xrotation Yrotation
								JOINT lhand
								{
									OFFSET 0 -9.48199 0
									CHANNELS 6 Xposition Yposition Zposition Zrotation Xrotation Yrotation
									JOINT lfingers
									{
										OFFSET 0 -3.17138 0
										CHANNELS 6 Xposition Yposition Zposition Zrotation Xrotation Yrotation
										End Site
										{
											OFFSET 0 -2.55685 0
										}
									}
								}
								JOINT lthumb
								{
									OFFSET 0 -9.48199 0
									CHANNELS 6 Xposition Yposition Zposition Zrotation Xrotation Yrotation
									End Site
									{
										OFFSET 0 -3.67114 0
									}
								}
							}
						}
					}
				}
				JOINT rclavicle
				{
					OFFSET 0.0883157 12.5016 0.82912
					CHANNELS 6 Xposition Yposition Zposition Zrotation Xrotation Yrotation
					JOINT rhumerus
					{
						OFFSET -20.61 4.45 1.44
						CHANNELS 6 Xposition Yposition Zposition Zrotation Xrotation Yrotation
						JOINT rradius
						{
							OFFSET 0 -29.5102 0
							CHANNELS 6 Xposition Yposition Zposition Zrotation Xrotation Yrotation
							JOINT rwrist
							{
								OFFSET 0 -19.2342 0
								CHANNELS 6 Xposition Yposition Zposition Zrotation Xrotation Yrotation
								JOINT rhand
								{
									OFFSET 0 -9.61712 0
									CHANNELS 6 Xposition Yposition Zposition Zrotation Xrotation Yrotation
									JOINT rfingers
									{
										OFFSET 0 -3.29215 0
										CHANNELS 6 Xposition Yposition Zposition Zrotation Xrotation Yrotation
										End Site
										{
											OFFSET 0 -2.557 0
										}
									}
								}
								JOINT rthumb
								{
									OFFSET 0 -9.61712 0
									CHANNELS 6 Xposition Yposition Zposition Zrotation Xrotation Yrotation
									End Site
									{
										OFFSET 0 -3.671 0
									}
								}
							}
						}
					}
				}
			}
		}
	}
	JOINT rfemur
	{
		OFFSET -8.46272 -9.62775 4.76248
		CHANNELS 6 Xposition Yposition Zposition Zrotation Xrotation Yrotation
		JOINT rtibia
		{
			OFFSET 1.00552e-005 -38.0331 0
			CHANNELS 6 Xposition Yposition Zposition Zrotation Xrotation Yrotation
			JOINT rfoot
			{
				OFFSET 1.14428e-005 -43.2815 0
				CHANNELS 6 Xposition Yposition Zposition Zrotation Xrotation Yrotation
				JOINT rtoes
				{
					OFFSET 0 -14.1868 -3.08763
					CHANNELS 6 Xposition Yposition Zposition Zrotation Xrotation Yrotation
					End Site
					{
						OFFSET 0 -7.27332 0
					}
				}
			}
		}
	}
	JOINT lfemur
	{
		OFFSET 9.10607 -9.62778 4.76249
		CHANNELS 6 Xposition Yposition Zposition Zrotation Xrotation Yrotation
		JOINT ltibia
		{
			OFFSET -1.01399e-005 -38.3535 0
			CHANNELS 6 Xposition Yposition Zposition Zrotation Xrotation Yrotation
			JOINT lfoot
			{
				OFFSET -1.12937e-005 -42.7176 0
				CHANNELS 6 Xposition Yposition Zposition Zrotation Xrotation Yrotation
				JOINT ltoes
				{
					OFFSET 0 -13.9965 -2.83857
					CHANNELS 6 Xposition Yposition Zposition Zrotation Xrotation Yrotation
					End Site
					{
						OFFSET 0 -7.16348 0
					}
				}
			}
		}
	}
}
MOTION
Frames: 5
Frame Time: 0.00833333
-2.16985	96.5815	48.3273	-0.542531	-4.95163	0.949256	0 0 0 12.0399	3.05424	-0.22147	-0.214371 12.3768 -1.12219 5.65561	6.48672	-0.819679	-0.00137213 12.3873 0.296195 -0.868625	5.11217	-0.0981543	0.0883157 12.5016 0.82912 5.70817	11.3784	-0.313536	-1 10.1794 0.943522 -10.3104	-0.320297	-0.123539	0.667525 10.2797 -1.57149 -4.13137	-2.02453	0.210519	0.0883157 12.5016 0.82912 -15	0	-0	20.61 4.45006 1.43784 19.4603	9.91517	-173.828	0 -30.3438 0 -0	38.6559	-0	0 -18.964 0 -0	0	-88.5066	0 -9.48199 0 1.22245	4.37968	-2.58917e-014	0 -3.17138 0 -0	7.12502	-0	0 -9.48199 0 25	15	-1.36605e-015	0.0883157 12.5016 0.82912 15	0	-0	-20.61 4.45 1.44 -25.8582	-14.1967	178.652	0 -29.5102 0 -0	37.0935	-0	0 -19.2342 0 7.91342e-016	-3.23713e-015	117.474	0 -9.61712 0 1.22	4.38	-0	0 -3.29215 0 -0	7.12502	-0	0 -9.61712 0 25	15	-7.97034e-015	-8.46272 -9.62775 4.76248 3.48953	3.40324	-1.70571	1.00552e-005 -38.0331 0 -0	25.6602	-0	1.14428e-005 -43.2815 0 -107.792	-79.2355	-107.498	0 -14.1868 -3.08763 -0	-25.6763	-0	9.10607 -9.62778 4.76249 10.7927	-28.3335	19.7885	-1.01399e-005 -38.3535 0 -0	67.0673	-0	-1.12937e-005 -42.7176 0 3.86097	-59.1898	4.49293	0 -13.9965 -2.83857 -0	-30.9966	-0
-2.25797	96.5668	48.9136	-0.796857	-4.79592	0.918293	0 0 0 12.1283	2.85807	-0.0475497	-0.214371 12.3768 -1.12219 5.51535	6.43844	-0.60412	-0.00137213 12.3873 0.296195 -1.04926	5.19476	0.0221444	0.0883157 12.5016 0.82912 5.45976	11.3183	-0.363453	-1 10.1794 0.943522 -9.89483	-0.33216	-0.208322	0.667525 10.2797 -1.57149 -3.99304	-2.04906	0.154504	0.0883157 12.5016 0.82912 -15	0	-0	20.61 4.45006 1.43784 19.5172	10.1053	-173.527	0 -30.3438 0 -0	38.2656	-0	0 -18.964 0 -0	0	-88.6071	0 -9.48199 0 1.22245	4.37968	-2.58917e-014	0 -3.17138 0 -0	7.12502	-0	0 -9.48199 0 25	15	-1.36605e-015	0.0883157 12.5016 0.82912 15	0	-0	-20.61 4.45 1.44 -25.6589	-14.2054	178.935	0 -29.5102 0 -0	37.1639	-0	0 -19.2342 0 7.90213e-016	-3.23496e-015	117.454	0 -9.61712 0 1.22	4.38	-0	0 -3.29215 0 -0	7.12502	-0	0 -9.61712 0 25	15	-7.97034e-015	-8.46272 -9.62775 4.76248 3.89044	3.8282	-1.64126	1.00552e-005 -38.0331 0 -0	25.2572	-0	1.14428e-005 -43.2815 0 -107.56	-79.0362	-107.259	0 -14.1868 -3.08763 -0	-25.1962	-0	9.10607 -9.62778 4.76249 10.3658	-28.6365	19.6852	-1.01399e-005 -38.3535 0 -0	64.8492	-0	-1.12937e-005 -42.7176 0 4.06407	-60.1379	4.68363	0 -13.9965 -2.83857 -0	-31.2444	-0
-2.34308	96.5397	49.5116	-1.06755	-4.62593	0.852046	0 0 0 12.2242	2.62476	0.134341	-0.214371 12.3768 -1.12219 5.38102	6.40255	-0.387036	-0.00137213 12.3873 0.296195 -1.22618	5.31441	0.145122	0.0883157 12.5016 0.82912 5.20997	11.3179	-0.418296	-1 10.1794 0.943522 -9.48187	-0.38192	-0.300638	0.667525 10.2797 -1.57149 -3.85437	-2.09501	0.0967917	0.0883157 12.5016 0.82912 -15	0	-0	20.61 4.45006 1.43784 19.5935	10.2759	-173.243	0 -30.3438 0 -0	37.896	-0	0 -18.964 0 -0	0	-88.7361	0 -9.48199 0 1.22245	4.37968	-2.58917e-014	0 -3.17138 0 -0	7.12502	-0	0 -9.48199 0 25	15	-1.36605e-015	0.0883157 12.5016 0.82912 15	0	-0	-20.61 4.45 1.44 -25.4751	-14.2662	179.227	0 -29.5102 0 -0	37.1739	-0	0 -19.2342 0 7.8931e-016	-3.23322e-015	117.438	0 -9.61712 0 1.22	4.38	-0	0 -3.29215 0 -0	7.12502	-0	0 -9.61712 0 25	15	-7.97034e-015	-8.46272 -9.62775 4.76248 4.29993	4.22884	-1.5912	1.00552e-005 -38.0331 0 -0	24.8775	-0	1.14428e-005 -43.2815 0 -107.263	-78.846	-106.956	0 -14.1868 -3.08763 -0	-24.6622	-0	9.10607 -9.62778 4.76249 9.9484	-28.8306	19.5744	-1.01399e-005 -38.3535 0 -0	62.4194	-0	-1.12937e-005 -42.7176 0 4.15948	-61.0955	4.74877	0 -13.9965 -2.83857 -0	-31.605	-0
-2.42427	96.4979	50.1218	-1.3536	-4.44386	0.751648	0 0 0 12.3257	2.35635	0.32094	-0.214371 12.3768 -1.12219 5.25369	6.38169	-0.172775	-0.00137213 12.3873 0.296195 -1.39732	5.47223	0.268641	0.0883157 12.5016 0.82912 4.96227	11.3852	-0.475228	-1 10.1794 0.943522 -9.07928	-0.474839	-0.396616	0.667525 10.2797 -1.57149 -3.71539	-2.16265	0.0397651	0.0883157 12.5016 0.82912 -15	0	-0	20.61 4.45006 1.43784 19.6874	10.431	-172.969	0 -30.3438 0 -0	37.5607	-0	0 -18.964 0 -0	0	-88.8915	0 -9.48199 0 1.22245	4.37968	-2.58917e-014	0 -3.17138 0 -0	7.12502	-0	0 -9.48199 0 25	15	-1.36605e-015	0.0883157 12.5016 0.82912 15	0	-0	-20.61 4.45 1.44 -25.3131	-14.388	179.541	0 -29.5102 0 -0	37.1261	-0	0 -19.2342 0 7.88746e-016	-3.23213e-015	117.428	0 -9.61712 0 1.22	4.38	-0	0 -3.29215 0 -0	7.12502	-0	0 -9.61712 0 25	15	-7.97034e-015	-8.46272 -9.62775 4.76248 4.71293	4.60394	-1.56946	1.00552e-005 -38.0331 0 -0	24.5272	-0	1.14428e-005 -43.2815 0 -106.909	-78.6817	-106.598	0 -14.1868 -3.08763 -0	-24.0836	-0	9.10607 -9.62778 4.76249 9.54648	-28.9225	19.451	-1.01399e-005 -38.3535 0 -0	59.8065	-0	-1.12937e-005 -42.7176 0 4.17312	-62.056	4.72149	0 -13.9965 -2.83857 -0	-32.0764	-0
-2.5051	96.4392	50.7399	-1.65277	-4.25333	0.6193	0 0 0 12.4299	2.05763	0.508356	-0.214371 12.3768 -1.12219 5.1341	6.37799	0.0340406	-0.00137213 12.3873 0.296195 -1.56038	5.66717	0.390282	0.0883157 12.5016 0.82912 4.72029	11.5259	-0.531172	-1 10.1794 0.943522 -8.69522	-0.614402	-0.492022	0.667525 10.2797 -1.57149 -3.57642	-2.25131	-0.0140833	0.0883157 12.5016 0.82912 -15	0	-0	20.61 4.45006 1.43784 19.7955	10.5754	-172.7	0 -30.3438 0 -0	37.2729	-0	0 -18.964 0 -0	0	-89.0693	0 -9.48199 0 1.22245	4.37968	-2.58917e-014	0 -3.17138 0 -0	7.12502	-0	0 -9.48199 0 25	15	-1.36605e-015	0.0883157 12.5016 0.82912 15	0	-0	-20.61 4.45 1.44 -25.1788	-14.5777	179.889	0 -29.5102 0 -0	37.0246	-0	0 -19.2342 0 7.88858e-016	-3.23235e-015	117.43	0 -9.61712 0 1.22	4.38	-0	0 -3.29215 0 -0	7.12502	-0	0 -9.61712 0 25	15	-7.97034e-015	-8.46272 -9.62775 4.76248 5.12317	4.95433	-1.58905	1.00552e-005 -38.0331 0 -0	24.2115	-0	1.14428e-005 -43.2815 0 -106.503	-78.5609	-106.193	0 -14.1868 -3.08763 -0	-23.4759	-0	9.10607 -9.62778 4.76249 9.16384	-28.9204	19.308	-1.01399e-005 -38.3535 0 -0	57.0479	-0	-1.12937e-005 -42.7176 0 4.14346	-63.0093	4.64776	0 -13.9965 -2.83857 -0	-32.6468	-0
